<?xml version="1.0" standalone="no"?>
<!DOCTYPE svg PUBLIC "-//W3C//DTD SVG 20010904//EN"
 "http://www.w3.org/TR/2001/REC-SVG-20010904/DTD/svg10.dtd">
<svg version="1.0" xmlns="http://www.w3.org/2000/svg"
 width="560.000000pt" height="560.000000pt" viewBox="0 0 560.000000 560.000000"
 preserveAspectRatio="xMidYMid meet">
<metadata>
Created by potrace 1.14, written by Peter Selinger 2001-2017
</metadata>
<g transform="translate(0.000000,560.000000) scale(0.100000,-0.100000)"
fill="#000000" stroke="none">
<path d="M3100 5235 c-24 -13 -48 -21 -52 -19 -4 3 -8 1 -8 -4 0 -7 -128 -41
-180 -47 -42 -5 -135 -17 -154 -20 -11 -2 -52 -7 -91 -10 -108 -11 -128 -13
-162 -19 -18 -3 -46 -8 -62 -11 -236 -40 -507 -231 -626 -439 -42 -75 -95
-224 -109 -306 -3 -19 -8 -46 -11 -59 -5 -26 -14 -102 -20 -171 -10 -104 -2
-420 11 -441 3 -5 -6 -14 -20 -21 -14 -6 -26 -15 -26 -21 0 -5 -6 -7 -14 -4
-19 7 -60 -38 -53 -57 4 -9 2 -16 -2 -16 -5 0 -7 -9 -4 -21 3 -12 2 -24 -3
-28 -25 -18 -33 -81 -32 -266 0 -169 2 -200 18 -232 27 -54 71 -98 122 -121
38 -18 44 -25 46 -54 1 -19 5 -45 7 -58 3 -14 8 -40 11 -59 3 -19 15 -64 26
-100 11 -36 21 -68 21 -71 1 -3 18 -40 39 -83 21 -43 38 -82 38 -86 0 -5 4
-11 8 -13 5 -1 26 -30 47 -63 49 -74 161 -189 238 -245 32 -23 93 -58 135 -78
42 -19 79 -37 81 -39 9 -6 -6 -13 -45 -18 -76 -12 -84 -13 -199 -40 -125 -30
-240 -89 -304 -156 -32 -35 -73 -108 -79 -144 -2 -11 -5 -27 -7 -35 -2 -8 -4
-23 -4 -32 -1 -11 -30 -31 -82 -57 -230 -115 -427 -290 -564 -501 -66 -102
-87 -140 -78 -140 4 0 3 -4 -2 -8 -19 -13 -73 -147 -106 -262 -15 -53 -15 -54
-23 -100 -3 -19 -8 -46 -11 -60 -15 -71 -23 -369 -10 -390 4 -7 623 -10 2001
-10 l1994 0 1 23 c1 19 0 82 -2 112 0 6 0 33 0 60 4 248 -86 553 -221 752 -15
23 -28 45 -28 48 0 4 -30 43 -66 87 -139 168 -297 295 -481 387 l-79 40 -14
68 c-7 37 -19 74 -27 81 -7 7 -13 19 -13 27 0 23 -115 120 -175 149 -78 37
-197 75 -250 81 -11 1 -36 5 -55 9 -19 3 -50 8 -69 11 -18 2 -35 6 -38 8 -5 5
103 57 118 57 5 0 9 4 9 10 0 5 3 9 8 8 25 -8 219 157 272 232 13 19 30 41 37
48 7 7 28 39 46 70 31 54 42 75 80 162 19 41 56 164 62 200 2 14 6 45 10 70
11 81 13 85 56 104 50 23 96 68 120 121 16 35 18 64 16 245 -1 113 -6 211 -11
219 -5 8 -8 38 -7 66 3 60 -5 70 -97 111 l-63 29 8 80 c17 177 8 498 -17 620
-30 146 -37 167 -87 264 -45 87 -127 180 -218 246 -22 16 -49 38 -60 48 -11
10 -32 26 -48 35 -34 20 -40 38 -26 82 28 91 28 101 6 109 -12 5 -31 3 -46 -5
-23 -11 -42 -19 -76 -30 -5 -2 -23 -7 -38 -10 l-29 -7 16 30 c12 24 13 34 3
46 -10 14 -17 15 -47 4 -19 -7 -42 -17 -50 -22 -26 -17 -62 -35 -70 -35 -5 0
1 17 13 38 22 42 18 72 -10 71 -10 0 -38 -11 -63 -24z"/>
</g>
</svg>
