<?xml version="1.0" encoding="UTF-8"?>
<!DOCTYPE svg PUBLIC "-//W3C//DTD SVG 1.1//EN" "http://www.w3.org/Graphics/SVG/1.1/DTD/svg11.dtd">
<!-- Creator: CorelDRAW X6 -->
<svg xmlns="http://www.w3.org/2000/svg" xml:space="preserve" width="4.16666in" height="2.48611in" version="1.1" style="shape-rendering:geometricPrecision; text-rendering:geometricPrecision; image-rendering:optimizeQuality; fill-rule:evenodd; clip-rule:evenodd"
viewBox="0 0 4167 2486"
 xmlns:xlink="http://www.w3.org/1999/xlink">
 <defs>
  <style type="text/css">
   <![CDATA[
    .fil0 {fill:#252F3E;fill-rule:nonzero}
    .fil1 {fill:#FF9900;fill-rule:nonzero}
   ]]>
  </style>
 </defs>
 <g id="Layer_x0020_1">
  <metadata id="CorelCorpID_0Corel-Layer"/>
  <path class="fil0" d="M1177 896c0,51 6,93 15,124 11,31 25,64 44,100 7,11 10,22 10,32 0,14 -8,28 -26,42l-88 58c-13,8 -25,13 -36,13 -14,0 -28,-7 -42,-19 -19,-21 -36,-43 -50,-65 -14,-24 -28,-50 -43,-82 -108,128 -244,192 -408,192 -117,0 -210,-33 -278,-100 -68,-67 -103,-156 -103,-267 0,-118 42,-214 126,-286 85,-72 197,-108 340,-108 47,0 96,4 147,11 51,7 104,18 160,31l0 -101c0,-106 -22,-179 -65,-222 -44,-43 -119,-64 -226,-64 -49,0 -99,6 -150,18 -51,13 -101,28 -150,47 -22,10 -39,15 -49,18 -10,3 -17,4 -22,4 -19,0 -29,-14 -29,-43l0 -68c0,-22 3,-39 10,-49 7,-10 19,-19 39,-29 49,-25 107,-46 175,-63 68,-18 140,-26 217,-26 165,0 286,38 364,113 76,75 115,189 115,342l0 450 3 0zm-564 211c46,0 93,-8 143,-25 50,-17 94,-47 132,-89 22,-26 39,-56 47,-89 8,-33 14,-74 14,-121l0 -58c-40,-10 -83,-18 -128,-24 -44,-6 -88,-8 -131,-8 -93,0 -161,18 -207,56 -46,38 -68,90 -68,160 0,65 17,114 51,147 33,35 82,51 146,51zm1115 150c-25,0 -42,-4 -53,-14 -11,-8 -21,-28 -29,-54l-326 -1074c-8,-28 -13,-46 -13,-56 0,-22 11,-35 33,-35l136 0c26,0 44,4 54,14 11,8 19,28 28,54l233 919 217 -919c7,-28 15,-46 26,-54 11,-8 31,-14 56,-14l111 0c26,0 44,4 56,14 11,8 21,28 26,54l219 931 240 -931c8,-28 18,-46 28,-54 11,-8 29,-14 54,-14l129 0c22,0 35,11 35,35 0,7 -1,14 -3,22 -1,8 -4,19 -10,35l-335 1074c-8,28 -18,46 -29,54 -11,8 -29,14 -53,14l-119 0c-26,0 -44,-4 -56,-14 -11,-10 -21,-28 -26,-56l-215 -896 -214 894c-7,28 -15,46 -26,56 -11,10 -31,14 -56,14l-119 0zm1785 38c-72,0 -144,-8 -214,-25 -69,-17 -124,-35 -160,-56 -22,-13 -38,-26 -43,-39 -6,-13 -8,-26 -8,-39l0 -71c0,-29 11,-43 32,-43 8,0 17,1 25,4 8,3 21,8 35,14 47,21 99,38 153,49 56,11 110,17 165,17 88,0 156,-15 203,-46 47,-31 72,-75 72,-132 0,-39 -13,-71 -38,-97 -25,-26 -72,-50 -140,-72l-201 -62c-101,-32 -176,-79 -222,-142 -46,-61 -69,-129 -69,-201 0,-58 13,-110 38,-154 25,-44 58,-83 100,-114 42,-32 89,-56 144,-72 56,-17 114,-24 175,-24 31,0 63,1 93,6 32,4 61,10 90,15 28,7 54,14 79,22 25,8 44,17 58,25 19,11 33,22 42,35 8,11 13,26 13,46l0 65c0,29 -11,44 -32,44 -11,0 -29,-6 -53,-17 -79,-36 -168,-54 -267,-54 -79,0 -142,13 -185,39 -43,26 -65,67 -65,124 0,39 14,72 42,99 28,26 79,53 153,76l197 63c100,32 172,76 215,133 43,57 64,122 64,194 0,60 -13,114 -36,161 -25,47 -58,89 -101,122 -43,35 -94,60 -154,78 -63,19 -128,29 -199,29z"/>
  <path class="fil1" d="M3775 1969c-457,337 -1121,517 -1692,517 -800,0 -1521,-296 -2065,-788 -43,-39 -4,-92 47,-61 589,342 1315,549 2067,549 507,0 1064,-106 1576,-322 76,-35 142,50 67,106zm190 -217c-58,-75 -386,-36 -535,-18 -44,6 -51,-33 -11,-63 261,-183 690,-131 740,-69 10,13 16,40 16,78l0 2c0,150 -80,454 -274,617 -38,32 -74,15 -57,-26 56,-138 179,-447 121,-521z"/>
 </g>
</svg>
