<?xml version="1.0" encoding="UTF-8"?>
<svg width="152px" height="24px" viewBox="0 0 152 24" version="1.1" xmlns="http://www.w3.org/2000/svg" xmlns:xlink="http://www.w3.org/1999/xlink">
    <!-- Generator: Sketch 52.5 (67469) - http://www.bohemiancoding.com/sketch -->
    <title>Logo - Black</title>
    <desc>Created with Sketch.</desc>
    <g id="Web" stroke="none" stroke-width="1" fill="none" fill-rule="evenodd">
        <g id="Home" transform="translate(-180.000000, -40.000000)">
            <g id="Logo---Black" transform="translate(180.000000, 40.000000)">
                <path d="M9.99997754,14.2210444 L9.99997754,9.05941988e-14 L14.0000764,9.05941988e-14 L14.0000764,24 L9.99997754,24 C9.99997754,18.4863335 5.51367886,14.0000449 -1.77635684e-15,14.0000449 L-1.77635684e-15,9.99995508 C3.91547202,9.99995508 7.45650187,11.6206176 9.99997754,14.2210444 Z M22.0000225,2.00002695 C22.0000225,7.51369343 26.4863211,11.999982 32,11.999982 L32,15.9998922 C28.084528,15.9998922 24.5434981,14.3794093 22.0000225,11.7789826 L22.0000225,23.9998922 L17.9999236,23.9998922 L17.9999236,7.18697361e-05 L22.0000225,7.18697361e-05 L22.0000225,2.00002695 Z" id="Icon" fill="#4D6AFF"></path>
                <path d="M41.9008322,14.0655852 L41.9008322,23.6065987 L38,23.6065987 L38,0.983824927 L41.9008322,0.983824927 L41.9008322,10.3935805 L49.0465444,0.983824927 L53.8322516,0.983824927 L45.2115784,12.1312664 L54.0615131,23.6065987 L49.1777687,23.6065987 L41.9008322,14.0655852 Z M66.7794654,15.2460261 C66.7794654,12.295178 64.5831943,10.0329683 61.6332725,10.0329683 C58.6505023,10.0329683 56.4542312,12.295178 56.4542312,15.2460261 C56.4542312,18.1968742 58.6505023,20.4590839 61.6332725,20.4590839 C64.5831943,20.4590839 66.7794654,18.1968742 66.7794654,15.2460261 Z M70.4508667,6.88531795 L70.4508667,23.6067342 L66.7794654,23.6067342 L66.7794654,21.0164644 C65.4355594,22.8525514 63.3705126,24 60.9121316,24 C56.1919519,24 52.6847926,20.2295942 52.6847926,15.2460261 C52.6847926,10.262458 56.1919519,6.49205219 60.9121316,6.49205219 C63.3705126,6.49205219 65.4355594,7.63950074 66.7794654,9.47541842 L66.7794654,6.88531795 L70.4508667,6.88531795 Z M82.3158782,6.62307303 L82.3158782,10.3934789 C79.0706594,10.3934789 77.1695159,12.3935113 77.1695159,15.4756174 L77.1695159,23.6066665 L73.4984532,23.6066665 L73.4984532,6.88541957 L77.1695159,6.88541957 L77.1695159,9.60677799 C78.415046,7.73783412 80.1853038,6.62307303 82.3158782,6.62307303 Z M96.3447695,15.2460261 C96.3447695,12.295178 94.1486677,10.0329683 91.1985766,10.0329683 C88.2158064,10.0329683 86.0195353,12.295178 86.0195353,15.2460261 C86.0195353,18.1968742 88.2158064,20.4590839 91.1985766,20.4590839 C94.1486677,20.4590839 96.3447695,18.1968742 96.3447695,15.2460261 Z M100.016171,0.983791054 L100.016171,23.6067342 L96.3447695,23.6067342 L96.3447695,21.0164644 C95.0008635,22.8525514 92.9358167,24 90.4774357,24 C85.7574253,24 82.2500967,20.2295942 82.2500967,15.2460261 C82.2500967,10.262458 85.7574253,6.49205219 90.4774357,6.49205219 C92.9358167,6.49205219 95.0008635,7.63950074 96.3447695,9.47541842 L96.3447695,0.983791054 L100.016171,0.983791054 Z M103.063842,4.65567722 L103.063842,0.983672499 L106.734905,0.983672499 L106.734905,4.65567722 L103.063842,4.65567722 Z M103.063842,23.6066157 L103.063842,6.88536876 L106.734905,6.88536876 L106.734905,23.6066157 L103.063842,23.6066157 Z M125.71322,13.0820313 L125.71322,23.6067173 L122.041988,23.6067173 L122.041988,14.2951935 C122.041988,11.7379498 120.403124,10.0329514 117.879046,10.0329514 C115.224083,10.0329514 113.453994,11.7704679 113.453994,14.3607378 L113.453994,23.6067173 L109.782931,23.6067173 L109.782931,6.88547038 L113.453994,6.88547038 L113.453994,9.21322431 C114.765221,7.44268156 116.699213,6.49203525 119.091897,6.49203525 C123.058087,6.49203525 125.71322,9.11482319 125.71322,13.0820313 Z M141.609949,15.2460261 C141.609949,12.295178 139.413678,10.0329683 136.463757,10.0329683 C133.480986,10.0329683 131.284715,12.295178 131.284715,15.2460261 C131.284715,18.1968742 133.480986,20.4590839 136.463757,20.4590839 C139.413678,20.4590839 141.609949,18.1968742 141.609949,15.2460261 Z M145.281181,6.88531795 L145.281181,23.6067342 L141.609949,23.6067342 L141.609949,21.0164644 C140.266044,22.8525514 138.200997,24 135.742616,24 C131.022436,24 127.515107,20.2295942 127.515107,15.2460261 C127.515107,10.262458 131.022436,6.49205219 135.742616,6.49205219 C138.200997,6.49205219 140.266044,7.63950074 141.609949,9.47541842 L141.609949,6.88531795 L145.281181,6.88531795 Z M148.328937,23.6066157 L148.328937,3.55271368e-14 L152,3.55271368e-14 L152,23.6066157 L148.328937,23.6066157 Z" id="Wordmark" fill="#000000"></path>
            </g>
        </g>
    </g>
</svg>