<?xml version="1.0" encoding="UTF-8" standalone="no" ?>
<!DOCTYPE svg PUBLIC "-//W3C//DTD SVG 1.1//EN" "http://www.w3.org/Graphics/SVG/1.1/DTD/svg11.dtd">
<svg xmlns="http://www.w3.org/2000/svg" xmlns:xlink="http://www.w3.org/1999/xlink" version="1.1" width="154.39845" height="154.39844" viewBox="0 0 154.39845 154.39844" xml:space="preserve">
<desc>Created with Fabric.js 5.3.0</desc>
<defs>
</defs>
<g transform="matrix(0.7480645531 0 0 0.748064553 76.9282969491 76.9282919666)" id="uRG31TKZBu4fw3f2UTiDX"  >
<g style="" vector-effect="non-scaling-stroke"   >
		<g transform="matrix(1.3333333333 0 0 1.3333333333 -0.0004675667 -0.0006058807)" id="2D7EB6WzZzx1Gqr_K8frJ"  >
<path style="stroke: none; stroke-width: 1; stroke-dasharray: none; stroke-linecap: butt; stroke-dashoffset: 0; stroke-linejoin: miter; stroke-miterlimit: 4; fill: rgb(0,138,199); fill-rule: nonzero; opacity: 1;" vector-effect="non-scaling-stroke"  transform=" translate(-77.198874325, -77.1987655894)" d="M 72.761709 7.9335907 C 37.707019 10.124991 9.570299 38.695311 7.878899 73.777341 C 7.582019 79.92577100000001 8.089829 85.914061 9.308579 91.64062100000001 C 9.933579 94.574211 13.691399 95.46093100000002 15.554679 93.10937100000001 C 16.453119 91.976561 16.828119 90.507811 16.550769 89.089841 C 15.804678999999998 85.289061 15.410148999999999 81.35937100000001 15.402328999999998 77.339841 C 15.324228999999999 42.95312100000001 42.753899 15.433591000000007 77.136709 15.39843100000001 C 112.58202 15.36723100000001 141.17187 45.32812100000001 138.86718 81.24999100000002 C 136.89843 111.92968000000002 112.18749 136.75390000000002 81.51951899999999 138.84765000000002 C 61.31639899999999 140.22656 42.98436899999999 131.83593000000002 30.773428999999986 117.93749000000001 C 28.605458999999986 115.47656 26.640618999999987 112.83984000000001 24.878898999999986 110.05468 L 64.82029899999999 59.550771000000005 L 64.82029899999999 109.39062000000001 C 64.82029899999999 110.58984000000001 65.199209 111.62499000000001 65.960929 112.46093000000002 C 66.50779899999999 113.08593000000002 67.53904899999999 113.83202000000001 69.29686899999999 113.82031000000002 C 70.43357899999998 113.81231000000002 71.55076899999999 113.35546000000002 72.35936899999999 112.55859000000002 C 73.20311899999999 111.72265000000003 73.67186899999999 110.70312000000003 73.76561899999999 109.50390000000003 L 73.77731899999999 84.79296100000003 L 79.00778899999999 79.89062100000004 L 105.04685999999998 112.62109000000004 C 106.58591999999999 114.48437000000004 109.05856999999997 114.71484000000004 111.26560999999998 113.17577000000004 C 112.05466999999999 112.62109000000004 112.98435999999998 111.57812000000004 112.98435999999998 109.68359000000004 C 112.98435999999998 108.67577000000004 112.67185999999998 107.71874000000004 112.00778999999999 106.75781000000003 L 85.765609 73.546871 L 110.15232 50.664061 C 110.98826 49.824211 111.43357 48.808591 111.43357 47.726561 C 111.43357 46.652341 111.03514 45.660151 110.24607 44.777341 C 109.42967 43.874991 108.38279 43.390621 107.20311000000001 43.390621 C 106.0742 43.390621 104.99998000000001 43.835931 103.99998000000001 44.749991 L 73.777319 73.386711 L 73.777319 47.62109100000001 C 73.777319 46.414061000000004 73.32810900000001 45.32812100000001 72.48435900000001 44.48437100000001 C 71.63669900000001 43.63671100000001 70.55466900000002 43.19140100000001 69.34763900000002 43.19140100000001 C 68.05466900000002 43.19140100000001 66.96872900000001 43.62890100000001 66.11325900000001 44.48437100000001 C 65.76950900000001 44.82421100000001 65.49606900000002 45.20702100000001 65.28513900000002 45.62499100000001 L 20.621069000000013 102.03124000000001 L 18.374979000000014 104.85937000000001 C 16.476539000000013 107.25390000000002 16.289039000000013 110.57421000000001 17.878889000000015 113.18359000000001 C 18.527319000000016 114.25390000000002 19.207009000000014 115.30859000000001 19.917949000000014 116.33984000000001 C 21.761699000000014 119.03124000000001 23.785139000000015 121.58984000000001 25.992169000000015 123.98437000000001 C 39.46481900000001 138.72656 59.19919900000002 147.65234 80.94528900000002 146.50390000000002 C 115.80076000000003 144.66015000000002 144.13670000000002 116.72656000000002 146.44529 81.90234100000002 C 149.22264 40.02734100000002 114.60936 5.316400700000017 72.761699 7.933590700000025" stroke-linecap="round" />
</g>
		<g transform="matrix(1.3333333333 0 0 1.3333333333 -0.0000206808 -0.0000128902)" id="-Udq11p0P5VGMdhor8r0Q"  >
<path style="stroke: none; stroke-width: 1; stroke-dasharray: none; stroke-linecap: butt; stroke-dashoffset: 0; stroke-linejoin: miter; stroke-miterlimit: 4; fill: rgb(0,138,199); fill-rule: nonzero; opacity: 1;" vector-effect="non-scaling-stroke"  transform=" translate(-77.1992094894, -77.1992103323)" d="M 77.199209 150.59374 C 36.730458999999996 150.59374 3.804678999999993 117.66796 3.804678999999993 77.19921099999999 C 3.804678999999993 36.72656099999999 36.730458999999996 3.800770699999987 77.199209 3.800770699999987 C 117.66796 3.800770699999987 150.59374 36.72656099999999 150.59374 77.19921099999999 C 150.59374 117.66796 117.66796 150.59374 77.199209 150.59374 M 77.199209 -0.000009335358100770463 C 34.632799 -0.0000093353581 -0.000011021152 34.628901 -0.000011021152 77.199211 C -0.000011021152 119.76562000000001 34.632799 154.39843000000002 77.199209 154.39843000000002 C 119.76562 154.39843000000002 154.39843 119.76562000000001 154.39843 77.19921100000002 C 154.39843 34.62890100000002 119.76561999999998 -0.000009335358086559609 77.199209 -0.000009335358086559609" stroke-linecap="round" />
</g>
</g>
</g>
</svg>