<?xml version="1.0" encoding="UTF-8"?> <svg xmlns="http://www.w3.org/2000/svg" width="228" height="37" viewBox="0 0 228 37" fill="none"><path d="M77.5904 16.3777H72.8415V22.9436H71.5464V5.31934H77.9358C81.8212 5.31934 84.4979 7.30638 84.4979 10.6757V10.7621C84.4979 14.477 81.3032 16.3777 77.5904 16.3777ZM83.2027 10.7621C83.2027 7.99753 81.0441 6.52884 77.8494 6.52884H72.8415V15.1682H77.6767C80.9578 15.1682 83.2027 13.4403 83.2027 10.7621Z" fill="#00416A"></path><path d="M93.9095 23.289C88.5562 23.289 85.0161 19.0557 85.0161 14.2177V14.1313C85.0161 9.2933 88.5562 4.97363 93.9095 4.97363C99.2627 4.97363 102.803 9.2069 102.803 14.0449C102.803 14.0449 102.803 14.0449 102.803 14.1313C102.803 18.9693 99.2627 23.289 93.9095 23.289ZM101.508 14.1313C101.508 9.72526 98.313 6.18314 93.9958 6.18314C89.5923 6.18314 86.4839 9.72526 86.4839 14.0449V14.1313C86.4839 18.5374 89.6786 22.0795 93.9958 22.0795C98.313 22.0795 101.508 18.5374 101.508 14.1313Z" fill="#00416A"></path><path d="M104.011 22.9436V5.31934H105.306V21.7341H115.668V22.9436H104.011Z" fill="#00416A"></path><path d="M131.123 22.9435L128.878 18.0191H118.431L116.186 22.9435H114.804L123.007 5.14648H124.302L132.505 22.9435H131.123ZM123.698 6.61517L119.035 16.8096H128.36L123.698 6.61517Z" fill="#00416A"></path><path d="M146.492 22.9436L140.88 15.6001H135.095V22.9436H133.8V5.31934H141.225C145.024 5.31934 147.528 7.39278 147.528 10.3301V10.4165C147.528 13.3539 145.37 15.0818 142.348 15.4273L148.133 22.9436H146.492ZM146.147 10.3301C146.147 7.99753 144.247 6.44245 141.053 6.44245H135.009V14.3906H140.966C143.988 14.477 146.147 13.0083 146.147 10.3301Z" fill="#00416A"></path><path d="M149.859 20.3516L152.622 17.0687C154.349 18.451 156.335 19.2285 158.321 19.2285C159.616 19.2285 160.307 18.7966 160.307 18.019V17.9326C160.307 17.2415 159.703 16.8095 157.371 16.2048C153.572 15.3408 150.723 14.3041 150.723 10.6756V10.5892C150.723 7.30625 153.313 4.97363 157.544 4.97363C160.566 4.97363 162.897 5.75118 164.797 7.30626L162.379 10.762C160.739 9.63887 159.012 9.03412 157.458 9.03412C156.249 9.03412 155.731 9.55248 155.731 10.1572V10.2436C155.731 11.0212 156.335 11.3667 158.753 11.9715C162.811 12.8354 165.315 14.1313 165.315 17.5007V17.587C165.315 21.2156 162.465 23.3754 158.148 23.3754C155.04 23.289 152.018 22.2523 149.859 20.3516Z" fill="#00416A"></path><path d="M168.682 9.55208H163.416V5.23242H178.871V9.55208H173.604V22.943H168.682V9.55208Z" fill="#00416A"></path><path d="M177.144 14.2177C177.144 9.12051 181.202 4.97363 186.642 4.97363C192.081 4.97363 196.14 9.03412 196.14 14.1313V14.2177C196.14 19.3149 192.081 23.3754 186.642 23.3754C181.202 23.3754 177.144 19.2285 177.144 14.2177ZM191.132 14.2177C191.132 11.6259 189.318 9.37969 186.555 9.37969C183.879 9.37969 182.066 11.5395 182.066 14.1313V14.2177C182.066 16.7231 183.879 18.9693 186.555 18.9693C189.318 18.883 191.132 16.7231 191.132 14.2177Z" fill="#00416A"></path><path d="M196.14 5.31934H204.515C207.192 5.31934 209.091 6.01048 210.3 7.21999C211.336 8.2567 211.854 9.55261 211.854 11.3669V11.4533C211.854 14.1314 210.386 15.9457 208.228 16.896L212.459 23.03H206.846L203.306 17.6736H203.22H201.061V23.03H196.14V5.31934ZM204.256 13.7859C205.896 13.7859 206.846 13.0083 206.846 11.7124V11.626C206.846 10.2438 205.81 9.55261 204.17 9.55261H201.061V13.7859H204.256Z" fill="#00416A"></path><path d="M210.991 5.31934H215.912V12.49L221.956 5.31934H227.741L221.093 12.9219L228 23.03H222.129L217.725 16.4641L215.912 18.4511V23.03H210.991V5.31934Z" fill="#00416A"></path><path d="M74.5684 31.7555C72.8415 31.7555 71.5464 30.3732 71.5464 28.6453C71.5464 26.9174 72.8415 25.5352 74.5684 25.5352C75.6909 25.5352 76.2953 25.9671 76.8997 26.4855L76.4679 27.0038C75.9499 26.4855 75.4318 26.1399 74.5684 26.1399C73.2732 26.1399 72.2371 27.1766 72.2371 28.6453C72.2371 30.114 73.2732 31.1507 74.5684 31.1507C75.4318 31.1507 75.9499 30.8051 76.5543 30.2868L76.986 30.7188C76.3816 31.3235 75.6909 31.7555 74.5684 31.7555Z" fill="#5E84AA"></path><path d="M81.8212 31.6686L80.0944 29.336H78.3675V31.6686H77.6768V25.6211H80.2671C81.5622 25.6211 82.4256 26.3122 82.4256 27.4354C82.4256 28.4721 81.7349 28.9904 80.7851 29.1632L82.5983 31.6686H81.8212ZM80.2671 26.2258H78.3675V28.6449H80.1807C81.0441 28.6449 81.7349 28.2129 81.7349 27.4354C81.8212 26.6578 81.2168 26.2258 80.2671 26.2258Z" fill="#5E84AA"></path><path d="M87.779 26.2263H84.0662V28.2997H87.3473V28.9045H84.0662V30.9779H87.779V31.5827H83.3755V25.5352H87.779V26.2263Z" fill="#5E84AA"></path><path d="M94.3409 31.6686H93.6501L92.9594 30.1135H89.6784L88.9876 31.6686H88.2969L91.0599 25.6211H91.6643L94.3409 31.6686ZM91.2325 26.3122L89.8511 29.4224H92.614L91.2325 26.3122Z" fill="#5E84AA"></path><path d="M96.4993 31.6686H95.8086V26.2258H93.7363V25.6211H98.4852V26.2258H96.4993V31.6686Z" fill="#5E84AA"></path><path d="M100.039 25.6211V31.6686H99.3486V25.6211H100.039Z" fill="#5E84AA"></path><path d="M105.825 25.6211H106.515L103.925 31.6686H103.321L100.73 25.6211H101.508L103.666 30.8047L105.825 25.6211Z" fill="#5E84AA"></path><path d="M111.61 26.2263H107.897V28.2997H111.178V28.9045H107.897V30.9779H111.61V31.5827H107.206V25.5352H111.61V26.2263Z" fill="#5E84AA"></path><path d="M116.704 26.0531V31.6686H116.272V26.0531H114.2V25.6211H118.863V26.0531H116.704Z" fill="#5E84AA"></path><path d="M119.726 31.6686V25.6211H124.043V26.0531H120.158V28.3857H123.612V28.8176H120.158V31.2367H124.043V31.6686H119.726Z" fill="#5E84AA"></path><path d="M127.669 31.7555C125.943 31.7555 124.647 30.3732 124.647 28.6453C124.647 26.9174 125.943 25.5352 127.669 25.5352C128.706 25.5352 129.396 25.9671 130.001 26.4855L129.655 26.8311C129.137 26.3127 128.533 25.9671 127.583 25.9671C126.115 25.9671 125.079 27.1766 125.079 28.6453C125.079 30.2004 126.202 31.3235 127.669 31.3235C128.533 31.3235 129.137 30.9779 129.742 30.3732L130.001 30.6324C129.483 31.3235 128.792 31.7555 127.669 31.7555Z" fill="#5E84AA"></path><path d="M135.095 31.6686V28.8176H131.21V31.6686H130.778V25.6211H131.21V28.3857H135.095V25.6211H135.527V31.6686H135.095Z" fill="#5E84AA"></path><path d="M141.571 31.6686L137.34 26.3122V31.6686H136.908V25.6211H137.34L141.484 30.8911V25.6211H141.916V31.6686H141.571Z" fill="#5E84AA"></path><path d="M145.888 31.7555C144.075 31.7555 142.866 30.2868 142.866 28.6453C142.866 27.0038 144.075 25.5352 145.888 25.5352C147.701 25.5352 148.91 27.0038 148.91 28.6453C148.996 30.2868 147.787 31.7555 145.888 31.7555ZM148.478 28.6453C148.478 27.1766 147.356 25.9671 145.888 25.9671C144.42 25.9671 143.297 27.1766 143.297 28.6453C143.297 30.114 144.42 31.3235 145.888 31.3235C147.442 31.3235 148.478 30.114 148.478 28.6453Z" fill="#5E84AA"></path><path d="M149.946 31.6686V25.6211H150.378V31.2367H153.918V31.6686H149.946Z" fill="#5E84AA"></path><path d="M157.199 31.7555C155.386 31.7555 154.177 30.2868 154.177 28.6453C154.177 27.0038 155.386 25.5352 157.199 25.5352C159.012 25.5352 160.221 27.0038 160.221 28.6453C160.307 30.2868 159.098 31.7555 157.199 31.7555ZM159.789 28.6453C159.789 27.1766 158.667 25.9671 157.199 25.9671C155.731 25.9671 154.608 27.1766 154.608 28.6453C154.608 30.114 155.731 31.3235 157.199 31.3235C158.753 31.3235 159.789 30.114 159.789 28.6453Z" fill="#5E84AA"></path><path d="M164.02 31.7555C162.121 31.7555 160.998 30.3732 160.998 28.6453C160.998 27.0038 162.207 25.5352 164.02 25.5352C164.97 25.5352 165.661 25.7943 166.265 26.3127L166.006 26.6583C165.574 26.2263 164.97 25.9671 164.106 25.9671C162.639 25.9671 161.602 27.1766 161.602 28.6453C161.602 30.2004 162.552 31.4099 164.193 31.4099C164.97 31.4099 165.661 31.0643 166.092 30.7188V28.9909H164.106V28.5589H166.524V30.8915C165.92 31.3235 165.056 31.7555 164.02 31.7555Z" fill="#5E84AA"></path><path d="M167.56 31.6686V25.6211H167.992V31.6686H167.56Z" fill="#5E84AA"></path><path d="M171.445 31.7555C170.496 31.7555 169.719 31.4099 169.028 30.8052L169.287 30.4596C169.978 31.0643 170.582 31.3235 171.445 31.3235C172.309 31.3235 173 30.8051 173 30.114C173 29.5092 172.654 29.0773 171.273 28.8181C169.805 28.5589 169.201 28.0406 169.201 27.0902C169.201 26.2263 170.064 25.5352 171.1 25.5352C171.964 25.5352 172.568 25.7943 173.172 26.2263L172.913 26.5719C172.309 26.0535 171.791 25.8807 171.1 25.8807C170.237 25.8807 169.632 26.3991 169.632 27.0038C169.632 27.6086 169.978 28.0406 171.359 28.2997C172.741 28.5589 173.345 29.0773 173.345 29.9412C173.431 31.0643 172.568 31.7555 171.445 31.7555Z" fill="#5E84AA"></path><path d="M176.367 26.0531V31.6686H175.936V26.0531H173.863V25.6211H178.526V26.0531H176.367Z" fill="#5E84AA"></path><path d="M181.289 31.7555C180.339 31.7555 179.562 31.4099 178.871 30.8052L179.13 30.4596C179.821 31.0643 180.425 31.3235 181.289 31.3235C182.152 31.3235 182.843 30.8051 182.843 30.114C182.843 29.5092 182.497 29.0773 181.116 28.8181C179.648 28.5589 179.044 28.0406 179.044 27.0902C179.044 26.2263 179.907 25.5352 180.943 25.5352C181.807 25.5352 182.411 25.7943 183.016 26.2263L182.757 26.5719C182.152 26.0535 181.634 25.8807 180.943 25.8807C180.08 25.8807 179.475 26.3991 179.475 27.0038C179.475 27.6086 179.821 28.0406 181.202 28.2997C182.584 28.5589 183.188 29.0773 183.188 29.9412C183.275 31.0643 182.411 31.7555 181.289 31.7555Z" fill="#5E84AA"></path><path d="M30.6169 32.3562C38.1754 32.3562 44.3027 26.2253 44.3027 18.6625C44.3027 11.0996 38.1754 4.96875 30.6169 4.96875C23.0585 4.96875 16.9312 11.0996 16.9312 18.6625C16.9312 26.2253 23.0585 32.3562 30.6169 32.3562Z" fill="#C8D3E1"></path><path d="M31.0078 20.6191V27.1921C31.0078 28.092 31.3206 29.1484 31.4379 29.4614C31.5943 29.7744 31.8289 30.0874 31.8289 30.0874L34.0969 33.6086L33.2366 34.978L31.5552 32.474L33.0411 35.3301L30.6559 36.3473L28.2315 35.291L29.7174 32.4349L28.036 34.9388L27.1758 33.5695L29.4437 30.0482C29.4437 30.0482 29.6392 29.7352 29.8347 29.4222C29.9911 29.1484 30.2649 28.0529 30.2649 27.153V20.6191H31.0078Z" fill="#00416A"></path><path d="M32.1809 10.329C32.1809 9.5856 31.7117 8.92047 31.2425 8.68572L31.0469 5.39923L30.6168 0L30.1867 5.36011L29.9912 8.6466C29.4829 8.92047 29.0527 9.54647 29.0527 10.2898C29.0527 10.4072 29.0918 10.642 29.0918 10.6811C29.17 11.2288 29.5611 11.6983 29.9521 11.9331C30.1085 12.3243 30.2258 12.7547 30.2258 13.2633V18.9364H31.0078V13.2633C31.0078 12.7547 31.1252 12.3243 31.2816 11.9331C31.6726 11.6983 32.0636 11.2288 32.1418 10.6811C32.1418 10.6811 32.1809 10.4463 32.1809 10.329Z" fill="#00416A"></path><path d="M30.6172 15.1023L39.6107 13.0678L43.4036 10.1725L56.2682 8.5293L59.8265 9.46829L61.1951 11.581L58.8881 16.9411L54.1176 19.1713L52.5926 21.4405L46.2972 21.9883L43.0126 24.3749L33.7845 25.666L30.6172 23.7098V15.1023Z" fill="#285D8B"></path><path d="M45.9062 14.1246L59.8266 9.46875L54.1177 19.1717L45.9062 14.1246Z" fill="#005487"></path><path d="M54.1172 19.1717L59.8261 9.46875L58.8877 16.9416L54.1172 19.1717Z" fill="#5E84AA"></path><path d="M46.2969 21.9889L54.1173 19.1719L52.5923 21.4411L46.2969 21.9889Z" fill="#005487"></path><path d="M46.2973 21.9881L45.9062 14.124L54.1177 19.1711L46.2973 21.9881Z" fill="#2D6795"></path><path d="M33.7842 25.6653L36.2867 22.457L43.0123 24.3742L33.7842 25.6653Z" fill="#2D6795"></path><path d="M43.4038 10.1719L45.9063 14.1235L39.6108 13.0671L43.4038 10.1719Z" fill="#005487"></path><path d="M36.2871 22.4583L39.6108 13.0684L45.9062 14.1247L36.2871 22.4583Z" fill="#5E84AA"></path><path d="M43.0126 24.3748L41.6831 17.7627L46.2972 21.9882L43.0126 24.3748Z" fill="#2D6795"></path><path d="M36.287 22.457L30.6172 15.1016V23.709L33.7845 25.6653L36.287 22.457Z" fill="#5E84AA"></path><path d="M43.4033 10.1725L56.2679 8.5293L59.8262 9.46829L43.4033 10.1725Z" fill="#2D6795"></path><path d="M30.6172 15.1029L36.287 22.4583L39.6107 13.0684L30.6172 15.1029Z" fill="#005487"></path><path d="M41.6832 17.7627L43.0127 24.3748L36.2871 22.4577L41.6832 17.7627Z" fill="#005487"></path><path d="M45.9061 14.124L46.2972 21.9881L41.6831 17.7626L45.9061 14.124Z" fill="#005487"></path><path d="M59.8262 9.46875L61.1947 11.5815L58.8877 16.9416L59.8262 9.46875Z" fill="#005487"></path><path d="M45.9059 14.1246L59.8262 9.46875L43.4033 10.173L45.9059 14.1246Z" fill="#5E84AA"></path><path d="M30.617 15.1023L21.6235 13.0678L17.8306 10.1725L4.96598 8.5293L1.36858 9.46829L0 11.581L2.34613 16.9411L7.07749 19.1713L8.60248 21.4405L14.8979 21.9883L18.2216 24.3749L27.4106 25.666L30.617 23.7098V15.1023Z" fill="#285D8B"></path><path d="M15.3281 14.1246L1.36865 9.46875L7.07757 19.1717L15.3281 14.1246Z" fill="#005487"></path><path d="M7.07757 19.1717L1.36865 9.46875L2.34621 16.9416L7.07757 19.1717Z" fill="#5E84AA"></path><path d="M14.8981 21.9889L7.07764 19.1719L8.60262 21.4411L14.8981 21.9889Z" fill="#005487"></path><path d="M14.8981 21.9881L15.3282 14.124L7.07764 19.1711L14.8981 21.9881Z" fill="#2D6795"></path><path d="M27.4107 25.6653L24.9473 22.457L18.2217 24.3742L27.4107 25.6653Z" fill="#2D6795"></path><path d="M17.8307 10.1719L15.3281 14.1235L21.6236 13.0671L17.8307 10.1719Z" fill="#005487"></path><path d="M24.9473 22.4583L21.6236 13.0684L15.3281 14.1247L24.9473 22.4583Z" fill="#5E84AA"></path><path d="M18.2216 24.3748L19.5511 17.7627L14.8979 21.9882L18.2216 24.3748Z" fill="#2D6795"></path><path d="M24.9473 22.457L30.6171 15.1016V23.709L27.4107 25.6653L24.9473 22.457Z" fill="#5E84AA"></path><path d="M17.8307 10.1725L4.96605 8.5293L1.36865 9.46829L17.8307 10.1725Z" fill="#2D6795"></path><path d="M30.617 15.1029L24.9472 22.4583L21.6235 13.0684L30.617 15.1029Z" fill="#005487"></path><path d="M19.5512 17.7627L18.2217 24.3748L24.9473 22.4577L19.5512 17.7627Z" fill="#005487"></path><path d="M15.3281 14.124L14.8979 21.9881L19.5511 17.7626L15.3281 14.124Z" fill="#005487"></path><path d="M1.36858 9.46875L0 11.5815L2.34613 16.9416L1.36858 9.46875Z" fill="#005487"></path><path d="M15.3281 14.1246L1.36865 9.46875L17.8307 10.173L15.3281 14.1246Z" fill="#5E84AA"></path><path d="M30.6171 15.1016L32.103 21.8702L30.6171 23.709L29.2876 21.2442L30.6171 15.1016Z" fill="#5E84AA"></path></svg> 