<?xml version="1.0" encoding="UTF-8"?> <svg xmlns="http://www.w3.org/2000/svg" width="700" height="70" viewBox="0 0 700 70" fill="none"><path d="M79.45 59.5H24.45V69.42H79.45V59.5Z" fill="#2DE2AA"></path><path d="M7.29 0L0.0499992 10.1L31.69 33.51L0 54.59L7.69 65.23L53.45 34.98L7.29 0Z" fill="#1A5AC1"></path><path d="M97.03 69.52V0H119.56C122.54 0 125.34 0.489991 127.96 1.45999C130.58 2.42999 132.86 3.81 134.81 5.59C136.75 7.37 138.29 9.51 139.42 12C140.55 14.49 141.12 17.26 141.12 20.3C141.12 23.34 140.55 26.11 139.42 28.6C138.29 31.09 136.75 33.23 134.81 35.01C132.87 36.79 130.59 38.17 127.96 39.14C125.34 40.11 122.54 40.6 119.56 40.6H103.25V69.53H97.03V69.52ZM119.85 34.67C121.99 34.67 123.96 34.3 125.77 33.55C127.58 32.81 129.15 31.79 130.48 30.49C131.81 29.2 132.86 27.67 133.64 25.93C134.42 24.18 134.81 22.31 134.81 20.3C134.81 18.29 134.42 16.4 133.64 14.62C132.86 12.84 131.81 11.32 130.48 10.06C129.15 8.8 127.58 7.79999 125.77 7.04999C123.96 6.30999 121.98 5.92999 119.85 5.92999H103.25V34.67H119.85Z" fill="#1A5ABF"></path><path d="M176.07 69.5C171.18 69.5 166.65 68.59 162.5 66.76C158.35 64.93 154.77 62.44 151.77 59.28C148.76 56.12 146.41 52.44 144.71 48.22C143.01 44.01 142.15 39.52 142.15 34.75C142.15 29.98 143 25.49 144.71 21.28C146.41 17.07 148.77 13.38 151.77 10.22C154.77 7.06 158.35 4.56999 162.5 2.73999C166.65 0.90999 171.17 0 176.07 0C180.9 0 185.39 0.90999 189.54 2.73999C193.69 4.56999 197.28 7.06 200.32 10.22C203.35 13.38 205.72 17.07 207.43 21.28C209.13 25.49 209.99 29.98 209.99 34.75C209.99 39.52 209.14 44.01 207.43 48.22C205.73 52.43 203.36 56.12 200.32 59.28C197.28 62.44 193.69 64.93 189.54 66.76C185.4 68.59 180.91 69.5 176.07 69.5ZM176.07 63.83C179.85 63.83 183.44 63.12 186.85 61.69C190.26 60.27 193.22 58.27 195.72 55.7C198.23 53.13 200.23 50.06 201.71 46.5C203.2 42.94 203.94 39.02 203.94 34.75C203.94 30.48 203.2 26.56 201.71 23C200.22 19.44 198.23 16.37 195.72 13.8C193.21 11.23 190.25 9.23 186.85 7.81C183.44 6.39 179.85 5.66998 176.07 5.66998C172.23 5.66998 168.62 6.38 165.25 7.81C161.87 9.24 158.92 11.23 156.38 13.8C153.84 16.37 151.84 19.44 150.39 23C148.93 26.56 148.21 30.48 148.21 34.75C148.21 39.02 148.94 42.94 150.39 46.5C151.84 50.06 153.84 53.13 156.38 55.7C158.92 58.27 161.88 60.27 165.25 61.69C168.63 63.12 172.23 63.83 176.07 63.83Z" fill="#1A5ABF"></path><path d="M218.1 0H224.31V63.6H255.77V69.52H218.1V0Z" fill="#1A5ABF"></path><path d="M286.06 0H293.24L320.14 69.52H313.34L305.77 49.42H273.53L265.96 69.52H259.16L286.06 0ZM303.53 43.6L289.84 7.57999H289.45L275.76 43.6H303.53Z" fill="#1A5ABF"></path><path d="M328.37 0H351.38C354.29 0 357.03 0.5 359.58 1.5C362.14 2.5 364.37 3.89999 366.28 5.67999C368.19 7.45999 369.69 9.6 370.79 12.09C371.89 14.58 372.44 17.32 372.44 20.29C372.44 22.75 372 25.06 371.13 27.23C370.26 29.4 369.06 31.32 367.54 33.01C366.02 34.69 364.22 36.13 362.15 37.33C360.08 38.53 357.84 39.39 355.45 39.9L355.26 40.19L375.07 69.12V69.51H367.98L348.37 40.58H334.58V69.51H328.37V0ZM350.51 34.76C352.58 34.76 354.56 34.4 356.43 33.69C358.31 32.98 359.97 31.99 361.43 30.73C362.89 29.47 364.03 27.95 364.88 26.17C365.72 24.39 366.14 22.43 366.14 20.3C366.14 18.29 365.75 16.4 364.97 14.62C364.19 12.84 363.14 11.32 361.81 10.06C360.48 8.8 358.91 7.79999 357.1 7.04999C355.29 6.30999 353.31 5.92999 351.18 5.92999H334.58V34.77H350.51V34.76Z" fill="#1A5ABF"></path><path d="M530.51 0.0599976C510.11 0.0599976 494.73 15.01 494.73 34.84C494.73 54.67 510.11 69.62 530.51 69.62C550.81 69.62 566.12 54.67 566.12 34.84C566.12 15.01 550.81 0.0599976 530.51 0.0599976ZM552.11 34.84C552.11 47.37 543.03 56.47 530.51 56.47C517.89 56.47 508.74 47.37 508.74 34.84C508.74 22.31 517.9 13.22 530.51 13.22C543.03 13.21 552.11 22.31 552.11 34.84Z" fill="#1A5ABF"></path><path d="M628.19 25.45C628.19 10.24 617.13 0.780029 599.33 0.780029H572.18V69.29H586.34V50.02H599.34C600.25 50.02 601.16 49.98 602.03 49.93L615.56 69.29H631.68L615.7 46.56C623.68 42.52 628.19 34.99 628.19 25.45ZM614.03 25.45C614.03 33.22 608.99 37.16 599.05 37.16H586.33V13.84H599.06C609 13.83 614.03 17.74 614.03 25.45Z" fill="#1A5ABF"></path><path d="M668.8 31.99L698.28 0.780029H680.93L650.38 32.37V0.780029H636.22V69.29H650.38V51.39L659.2 42.38L682.27 69.29H699.46L668.8 31.99Z" fill="#1A5ABF"></path><path d="M498.76 13.76V0.780029H422.6C416.42 0.780029 410.69 3.03004 406.45 7.13004C402.51 10.94 400.34 15.73 400.34 20.63C400.34 35.57 413.67 38.8 424.37 41.4C433.14 43.52 438.51 45.06 438.51 49.69C438.51 56.13 429.42 56.83 425.51 56.83C418.38 56.83 410.89 54.23 406.44 50.21L403.87 47.89L398.24 59.74L399.62 61.02C405.25 66.25 415.41 69.63 425.5 69.63C445.41 69.63 452.47 58.6 452.47 49.15C452.47 34.38 439.19 31.24 428.51 28.72C422.11 27.21 416.06 25.78 414.6 22.29C414.04 21.14 413.87 19.87 414.11 18.62C414.64 15.81 417.2 13.77 420.2 13.77H463.08V66.18V68.92V69.64H477.16V66.18H477.15V13.77H498.76V13.76Z" fill="#1A5ABF"></path></svg> 